<svg width="28" height="28" viewBox="0 0 28 28" fill="none" xmlns="http://www.w3.org/2000/svg">
<path d="M8.62512 3.4502H18.975C21.8499 3.4502 24.1499 5.75016 24.1499 8.62512V18.975C24.1499 21.8499 21.8499 24.1499 18.975 24.1499H8.62512C5.75016 24.1499 3.4502 21.8499 3.4502 18.975V8.62512C3.4502 5.75016 5.75016 3.4502 8.62512 3.4502Z" stroke="#495058" stroke-width="1.5" stroke-linecap="round" stroke-linejoin="round"/>
<path d="M9.31445 12.7642V18.9741" stroke="#495058" stroke-width="1.5" stroke-linecap="round" stroke-linejoin="round"/>
<path d="M13.4551 18.9746V15.2946C13.4551 13.9146 14.6051 12.7646 15.985 12.7646C17.365 12.7646 18.515 13.9146 18.515 15.2946V18.9746" stroke="#495058" stroke-width="1.5" stroke-linecap="round" stroke-linejoin="round"/>
<path d="M9.28561 8.96973C9.04691 8.96973 8.85318 9.16133 8.85549 9.39741C8.85434 9.63349 9.04806 9.82509 9.28676 9.82509C9.52546 9.82509 9.71919 9.63349 9.71919 9.39741C9.71919 9.16133 9.52546 8.96973 9.28561 8.96973" stroke="#495058" stroke-width="1.5" stroke-linecap="round" stroke-linejoin="round"/>
</svg>
